<?xml version="1.0" encoding="utf-8"?>
<!-- Generator: Adobe Illustrator 24.3.0, SVG Export Plug-In . SVG Version: 6.00 Build 0)  -->
<svg version="1.1" id="Layer_1" xmlns="http://www.w3.org/2000/svg" xmlns:xlink="http://www.w3.org/1999/xlink" x="0px" y="0px"
	 viewBox="0 0 1278 857.74" style="enable-background:new 0 0 1278 857.74;" xml:space="preserve">
<style type="text/css">
	.st0{fill:url(#SVGID_1_);}
	.st1{opacity:0.72;fill:url(#SVGID_2_);}
	.st2{opacity:0.47;fill:url(#SVGID_3_);}
	.st3{opacity:0.31;fill:url(#SVGID_4_);}
</style>
<linearGradient id="SVGID_1_" gradientUnits="userSpaceOnUse" x1="639.4807" y1="772.7935" x2="638.5193" y2="-0.7935">
	<stop  offset="0" style="stop-color:#FFFFFF;stop-opacity:0.9"/>
	<stop  offset="0.4609" style="stop-color:#05B39A;stop-opacity:0.7"/>
	<stop  offset="1" style="stop-color:#05B39A"/>
</linearGradient>
<rect class="st0" width="1278" height="772"/>
<linearGradient id="SVGID_2_" gradientUnits="userSpaceOnUse" x1="460.6709" y1="-335.5818" x2="761.1602" y2="908.6473">
	<stop  offset="0" style="stop-color:#70B49B"/>
	<stop  offset="1" style="stop-color:#FFFFFF;stop-opacity:0"/>
</linearGradient>
<path class="st1" d="M1278,126.77L1263.19,110L1242,153h-43.15c0,0-54.85,28-54.85,52c0,0-35,25-69,27l-28,30l-74.87,9.27
	l-58.21,44.01L822,324l-38.3,40l-45.96-1.7L685.66,385h-39.83l0.17,13l-30.81,8.73L579.96,476l-13.79-14.57L550.85,476l-50.55,11.01
	l-26.04-9.95l-10.72,26l-21.45,21.6l-30.64-24.6l-53.62,7.68l-15.32-20.73l-30.64,16.05H284.3l-19.91,57.26l-53.62,22.15
	l-96.51,13.64l-44.43,12.52L34.6,616.5l-15.32,30.08L8.55,641.6L-2,670.6l1280-16.67V126.77z"/>
<linearGradient id="SVGID_3_" gradientUnits="userSpaceOnUse" x1="460.6709" y1="-251.5818" x2="761.1602" y2="992.6473">
	<stop  offset="0" style="stop-color:#70B49B"/>
	<stop  offset="1" style="stop-color:#FFFFFF;stop-opacity:0"/>
</linearGradient>
<path class="st2" d="M1278,210.77L1263.19,194L1242,237h-43.15c0,0-54.85,28-54.85,52c0,0-35,25-69,27l-28,30l-74.87,9.27
	l-58.21,44.01L822,408l-38.3,40l-45.96-1.7L685.66,469h-39.83l0.17,13l-30.81,8.73L579.96,560l-13.79-14.57L550.85,560l-50.55,11.01
	l-26.04-9.95l-10.72,26l-21.45,21.6l-30.64-24.6l-53.62,7.68l-15.32-20.73l-30.64,16.05H284.3l-19.91,57.26l-53.62,22.15
	l-96.51,13.64l-44.43,12.52L34.6,700.5l-15.32,30.08L8.55,725.6L-2,754.6l1280-16.67V210.77z"/>
<linearGradient id="SVGID_4_" gradientUnits="userSpaceOnUse" x1="460.6709" y1="-220.5818" x2="761.1602" y2="1023.6473">
	<stop  offset="0" style="stop-color:#70B49B"/>
	<stop  offset="1" style="stop-color:#FFFFFF;stop-opacity:0"/>
</linearGradient>
<path class="st3" d="M1278,241.77L1263.19,225L1242,268h-43.15c0,0-54.85,28-54.85,52c0,0-35,25-69,27l-28,30l-74.87,9.27
	l-58.21,44.01L822,439l-38.3,40l-45.96-1.7L685.66,500h-39.83l0.17,13l-30.81,8.73L579.96,591l-13.79-14.57L550.85,591l-50.55,11.01
	l-26.04-9.95l-10.72,26l-21.45,21.6l-30.64-24.6l-53.62,7.68l-15.32-20.73l-30.64,16.05H284.3l-19.91,57.26l-53.62,22.15
	l-96.51,13.64l-44.43,12.52L34.6,731.5l-15.32,30.08L8.55,756.6L-2,785.6l1280-16.67V241.77z"/>
</svg>
