<?xml version="1.0" encoding="utf-8"?>
<!-- Generator: Adobe Illustrator 24.3.0, SVG Export Plug-In . SVG Version: 6.00 Build 0)  -->
<svg version="1.1" id="Layer_1" xmlns="http://www.w3.org/2000/svg" xmlns:xlink="http://www.w3.org/1999/xlink" x="0px" y="0px"
	 viewBox="0 0 419.74 280.85" style="enable-background:new 0 0 419.74 280.85;" xml:space="preserve">
<style type="text/css">
	.st0{fill:none;stroke:#05B39A;stroke-miterlimit:10;}
</style>
<path class="st0" d="M90.26,16.41c-7.79,0-15.58-0.09-23.38-0.08c-9.8,0.01-18.82,0.08-27.16,5.88
	c-7.24,5.04-12.8,12.45-16.38,20.46c-5.13,11.47-4.49,22.31-4.49,34.52c0,15.34,0,30.69,0,46.03"/>
<path class="st0" d="M402.51,176.62c0,17.12,1.07,34.63-0.09,51.71c-0.75,11.05-6.04,20.99-14.21,28.53
	c-8.03,7.42-18.81,9.9-29.45,10.42c-12.53,0.62-25.19,0.13-37.73,0.13c-7.38,0-14.77,0-22.15,0"/>
</svg>
